<svg width="129" height="49" viewBox="0 0 129 49" fill="none" xmlns="http://www.w3.org/2000/svg">
<path d="M27.1222 16C27.0009 14.4848 26.4328 13.303 25.4176 12.4545C24.4176 11.6061 22.8949 11.1818 20.8494 11.1818C19.5464 11.1818 18.4782 11.3409 17.6449 11.6591C16.8267 11.9621 16.2206 12.3788 15.8267 12.9091C15.4328 13.4394 15.2282 14.0455 15.2131 14.7273C15.1828 15.2879 15.2813 15.7955 15.5085 16.25C15.7509 16.6894 16.1297 17.0909 16.6449 17.4545C17.16 17.803 17.8191 18.1212 18.6222 18.4091C19.4252 18.697 20.3797 18.9545 21.4858 19.1818L25.304 20C27.8797 20.5455 30.0843 21.2652 31.9176 22.1591C33.7509 23.053 35.2509 24.1061 36.4176 25.3182C37.5843 26.5152 38.4403 27.8636 38.9858 29.3636C39.5464 30.8636 39.8343 32.5 39.8494 34.2727C39.8343 37.3333 39.0691 39.9242 37.554 42.0455C36.0388 44.1667 33.8722 45.7803 31.054 46.8864C28.2509 47.9924 24.8797 48.5455 20.9403 48.5455C16.8949 48.5455 13.3646 47.947 10.3494 46.75C7.34943 45.553 5.0161 43.7121 3.34943 41.2273C1.69792 38.7273 0.864583 35.5303 0.849432 31.6364H12.8494C12.9252 33.0606 13.2813 34.2576 13.9176 35.2273C14.554 36.197 15.4479 36.9318 16.5994 37.4318C17.7661 37.9318 19.1525 38.1818 20.7585 38.1818C22.107 38.1818 23.2358 38.0152 24.1449 37.6818C25.054 37.3485 25.7434 36.8864 26.2131 36.2955C26.6828 35.7045 26.9252 35.0303 26.9403 34.2727C26.9252 33.5606 26.6903 32.9394 26.2358 32.4091C25.7964 31.8636 25.0691 31.3788 24.054 30.9545C23.0388 30.5152 21.6676 30.1061 19.9403 29.7273L15.304 28.7273C11.1828 27.8333 7.93277 26.3409 5.55398 24.25C3.19034 22.1439 2.0161 19.2727 2.03125 15.6364C2.0161 12.6818 2.80398 10.0985 4.39489 7.88636C6.00095 5.65909 8.22064 3.92424 11.054 2.68182C13.9025 1.43939 17.1676 0.81818 20.8494 0.81818C24.607 0.81818 27.857 1.44697 30.5994 2.70454C33.3419 3.96212 35.4555 5.73485 36.9403 8.02273C38.4403 10.2955 39.1979 12.9545 39.2131 16H27.1222ZM57.3835 1.45454L66.929 34.2727H67.2926L76.8381 1.45454H91.1108L75.7472 48H58.4744L43.1108 1.45454H57.3835ZM95.5938 48V1.45454H128.321V11.6364H108.23V19.6364H126.321V29.8182H108.23V48H95.5938Z" fill="#FAF9F6"/>
</svg>
